<?xml version="1.0" standalone="no"?>
<!DOCTYPE svg PUBLIC "-//W3C//DTD SVG 20010904//EN"
 "http://www.w3.org/TR/2001/REC-SVG-20010904/DTD/svg10.dtd">
<svg version="1.0" xmlns="http://www.w3.org/2000/svg"
 width="477.000000pt" height="519.000000pt" viewBox="0 0 477.000000 519.000000"
 preserveAspectRatio="xMidYMid meet">
<metadata>
Created by potrace 1.16, written by Peter Selinger 2001-2019
</metadata>
<g transform="translate(0.000000,519.000000) scale(0.100000,-0.100000)"
fill="#000000" stroke="none">
<path d="M2220 4510 l0 -130 -85 0 -85 0 0 -180 0 -180 -85 0 -85 0 0 -110 0
-110 -85 0 -85 0 0 -125 0 -125 -95 0 -94 0 -3 -132 -3 -133 -87 -3 -88 -3 0
-264 0 -265 -105 0 -105 0 0 -315 0 -314 -102 -3 -103 -3 -2 -157 -2 -158 104
0 105 0 0 -230 0 -230 105 0 104 0 3 -88 3 -87 88 -3 87 -3 0 -94 0 -95 180 0
180 0 0 -170 0 -170 85 0 85 0 0 170 0 170 85 0 85 0 0 -80 0 -80 95 0 95 0 0
80 0 80 100 0 100 0 0 95 0 95 80 0 80 0 2 168 3 167 24 3 c14 2 49 1 78 -3
l53 -6 0 -165 0 -164 -75 0 -75 0 0 -175 0 -175 70 0 70 0 0 80 0 80 170 0
170 0 0 180 0 180 90 0 90 0 0 80 0 80 80 0 80 0 0 245 0 245 84 0 c58 0 85 4
89 13 2 7 2 36 -1 65 l-5 52 -47 0 c-26 0 -62 3 -79 6 l-31 7 0 213 0 214 -85
0 -85 0 0 270 0 270 -180 0 -180 0 0 95 0 95 -80 0 -80 0 0 260 0 260 -70 0
-70 0 0 -119 c0 -137 5 -131 -101 -131 l-69 0 0 230 0 230 85 0 85 0 0 105 0
105 -179 0 -179 0 -6 28 c-3 15 -5 43 -5 62 1 19 1 101 0 183 l-1 147 -95 0
-95 0 0 -130z m550 -1510 l0 -80 -80 0 -80 0 0 80 0 80 80 0 80 0 0 -80z m488
-262 l2 -188 84 0 83 0 7 -40 c3 -23 3 -122 0 -222 l-7 -181 -126 6 c-69 4
-147 7 -173 7 l-48 0 0 120 0 120 -80 0 -80 0 0 95 0 95 80 0 80 0 0 95 0 94
-82 3 -83 3 -3 79 c-2 44 -1 85 2 93 5 11 39 13 173 11 l168 -3 3 -187z m-488
-283 l0 -95 -80 0 -80 0 0 95 0 95 80 0 80 0 0 -95z m160 -405 l0 -70 -75 0
-75 0 0 70 0 70 75 0 75 0 0 -70z m508 -312 l2 -248 -90 0 -90 0 0 80 0 80
-90 0 -90 0 0 75 0 74 88 3 87 3 3 93 3 93 87 -3 87 -3 3 -247z m-1018 -163
l0 -75 95 0 95 0 0 -170 0 -170 -100 0 -100 0 0 165 0 165 -90 0 -90 0 0 80 0
80 95 0 95 0 0 -75z"/>
<path d="M3090 3420 l0 -130 85 0 85 0 0 130 0 130 -85 0 -85 0 0 -130z"/>
<path d="M2420 715 l0 -85 95 0 95 0 0 85 0 85 -95 0 -95 0 0 -85z"/>
</g>
</svg>
